<svg width="24" height="25" viewBox="0 0 24 25" fill="none" xmlns="http://www.w3.org/2000/svg">
<mask id="mask0_207_28251" style="mask-type:alpha" maskUnits="userSpaceOnUse" x="0" y="0" width="24" height="25">
<rect y="0.838867" width="24" height="24" fill="#D9D9D9"/>
</mask>
<g mask="url(#mask0_207_28251)">
<path d="M11 17.8389H13V13.8389H17V11.8389H13V7.83887H11V11.8389H7V13.8389H11V17.8389ZM5 21.8389C4.45 21.8389 3.97917 21.643 3.5875 21.2514C3.19583 20.8597 3 20.3889 3 19.8389V5.83887C3 5.28887 3.19583 4.81803 3.5875 4.42637C3.97917 4.0347 4.45 3.83887 5 3.83887H19C19.55 3.83887 20.0208 4.0347 20.4125 4.42637C20.8042 4.81803 21 5.28887 21 5.83887V19.8389C21 20.3889 20.8042 20.8597 20.4125 21.2514C20.0208 21.643 19.55 21.8389 19 21.8389H5Z" fill="white"/>
</g>
</svg>
