<svg width="20" height="18" viewBox="0 0 20 18" fill="none" xmlns="http://www.w3.org/2000/svg">
<path d="M18.2895 7.78277H4.24479L8.54347 2.47257C8.74448 2.22385 8.84118 1.90319 8.81231 1.58114C8.78344 1.25908 8.63136 0.962014 8.38953 0.755283C8.14769 0.548553 7.83591 0.449094 7.52277 0.478787C7.20964 0.508479 6.92079 0.664892 6.71979 0.913615L0.798736 8.22123C0.7589 8.27936 0.723277 8.34042 0.692157 8.40392C0.692157 8.46482 0.692157 8.50136 0.609262 8.56225C0.555586 8.7019 0.527482 8.85055 0.526367 9.00071C0.527482 9.15087 0.555586 9.29952 0.609262 9.43917C0.609262 9.50006 0.609262 9.5366 0.692157 9.5975C0.723277 9.661 0.7589 9.72206 0.798736 9.78019L6.71979 17.0878C6.83113 17.2253 6.97056 17.3359 7.12816 17.4116C7.28576 17.4874 7.45766 17.5266 7.63163 17.5263C7.90832 17.5268 8.17647 17.4277 8.38953 17.2461C8.50944 17.1439 8.60856 17.0183 8.68121 16.8766C8.75386 16.7349 8.79862 16.5799 8.81292 16.4203C8.82722 16.2608 8.81079 16.1 8.76455 15.947C8.71831 15.794 8.64319 15.6519 8.54347 15.5288L4.24479 10.2186H18.2895C18.6036 10.2186 18.9048 10.0903 19.1269 9.86192C19.349 9.63351 19.4737 9.32373 19.4737 9.00071C19.4737 8.67769 19.349 8.36791 19.1269 8.1395C18.9048 7.91109 18.6036 7.78277 18.2895 7.78277Z" fill="#2C2C2C"/>
</svg>
