<svg width="15" height="15" viewBox="0 0 15 15" fill="none" xmlns="http://www.w3.org/2000/svg">
<g clip-path="url(#clip0_398_379)">
<path d="M14.4141 7H1.52344C1.19983 7 0.9375 7.33579 0.9375 7.75C0.9375 8.16421 1.19983 8.5 1.52344 8.5H14.4141C14.7377 8.5 15 8.16421 15 7.75C15 7.33579 14.7377 7 14.4141 7Z" fill="white"/>
<path d="M14.4141 11H1.52344C1.19983 11 0.9375 11.3358 0.9375 11.75C0.9375 12.1642 1.19983 12.5 1.52344 12.5H14.4141C14.7377 12.5 15 12.1642 15 11.75C15 11.3358 14.7377 11 14.4141 11Z" fill="white"/>
<path d="M14.5703 3H5.11719C4.87988 3 4.6875 3.33579 4.6875 3.75C4.6875 4.16421 4.87988 4.5 5.11719 4.5H14.5703C14.8076 4.5 15 4.16421 15 3.75C15 3.33579 14.8076 3 14.5703 3Z" fill="white"/>
</g>
<defs>
<clipPath id="clip0_398_379">
<rect width="14.0625" height="15" fill="white" transform="translate(0.9375)"/>
</clipPath>
</defs>
</svg>
