<svg width="15" height="16" viewBox="0 0 15 16" fill="none" xmlns="http://www.w3.org/2000/svg">
<g clip-path="url(#clip0_398_369)">
<path d="M10.3125 2.375C9.225 2.375 8.18125 2.88125 7.5 3.68125C6.81875 2.88125 5.775 2.375 4.6875 2.375C2.7625 2.375 1.25 3.8875 1.25 5.8125C1.25 8.175 3.375 10.1 6.59375 13.025L7.5 13.8438L8.40625 13.0188C11.625 10.1 13.75 8.175 13.75 5.8125C13.75 3.8875 12.2375 2.375 10.3125 2.375ZM7.5625 12.0938L7.5 12.1562L7.4375 12.0938C4.4625 9.4 2.5 7.61875 2.5 5.8125C2.5 4.5625 3.4375 3.625 4.6875 3.625C5.65 3.625 6.5875 4.24375 6.91875 5.1H8.0875C8.4125 4.24375 9.35 3.625 10.3125 3.625C11.5625 3.625 12.5 4.5625 12.5 5.8125C12.5 7.61875 10.5375 9.4 7.5625 12.0938Z" fill="white"/>
</g>
<defs>
<clipPath id="clip0_398_369">
<rect width="15" height="15" fill="white" transform="translate(0 0.5)"/>
</clipPath>
</defs>
</svg>
