<svg width="15" height="15" viewBox="0 0 15 15" fill="none" xmlns="http://www.w3.org/2000/svg">
<path fill-rule="evenodd" clip-rule="evenodd" d="M3.25203 2.81341C3.51041 2.79726 3.73295 2.99363 3.7491 3.25201L4.33504 12.627C4.33515 12.6287 4.33525 12.6305 4.33534 12.6322C4.35154 12.9477 4.56099 13.125 4.8047 13.125H10.1953C10.4366 13.125 10.6452 12.9516 10.665 12.6277L11.2509 3.25201C11.2671 2.99363 11.4896 2.79726 11.748 2.81341C12.0064 2.82956 12.2028 3.05211 12.1866 3.31049L11.6007 12.6848C11.6007 12.6849 11.6007 12.6849 11.6007 12.6849C11.5543 13.4443 10.9893 14.0625 10.1953 14.0625H4.8047C4.01813 14.0625 3.43994 13.4497 3.39922 12.6831L2.81343 3.31049C2.79728 3.05211 2.99365 2.82956 3.25203 2.81341Z" fill="white"/>
<path fill-rule="evenodd" clip-rule="evenodd" d="M1.875 3.28125C1.875 3.02237 2.08487 2.8125 2.34375 2.8125H12.6562C12.9151 2.8125 13.125 3.02237 13.125 3.28125C13.125 3.54013 12.9151 3.75 12.6562 3.75H2.34375C2.08487 3.75 1.875 3.54013 1.875 3.28125Z" fill="white"/>
<path fill-rule="evenodd" clip-rule="evenodd" d="M6.32675 1.875C6.29613 1.87491 6.26579 1.88088 6.23748 1.89255C6.20917 1.90423 6.18345 1.92139 6.1618 1.94305C6.14014 1.9647 6.12298 1.99042 6.1113 2.01873C6.09963 2.04704 6.09366 2.07738 6.09375 2.108L6.09375 2.10938V3.28125C6.09375 3.54014 5.88389 3.75 5.625 3.75C5.36612 3.75 5.15625 3.54014 5.15625 3.28125V2.10998C5.1559 1.95604 5.18594 1.80355 5.24464 1.66124C5.30344 1.51869 5.38985 1.38917 5.49888 1.28013C5.60792 1.1711 5.73744 1.08469 5.87999 1.02589C6.0223 0.96719 6.17479 0.937154 6.32873 0.937503H8.67128C8.82522 0.937154 8.97771 0.96719 9.12002 1.02589C9.26257 1.08469 9.39209 1.1711 9.50112 1.28013C9.61016 1.38917 9.69656 1.51869 9.75536 1.66124C9.81408 1.80357 9.84411 1.9561 9.84375 2.11007V3.28125C9.84375 3.54014 9.63389 3.75 9.375 3.75C9.11612 3.75 8.90625 3.54014 8.90625 3.28125V2.10938L8.90626 2.108C8.90634 2.07738 8.90038 2.04704 8.8887 2.01873C8.87702 1.99042 8.85986 1.9647 8.83821 1.94305C8.81656 1.92139 8.79083 1.90423 8.76252 1.89255C8.73421 1.88088 8.70387 1.87491 8.67325 1.875L8.67188 1.875H6.32813L6.32675 1.875Z" fill="white"/>
<path fill-rule="evenodd" clip-rule="evenodd" d="M7.5 4.6875C7.75888 4.6875 7.96875 4.89737 7.96875 5.15625V11.7188C7.96875 11.9776 7.75888 12.1875 7.5 12.1875C7.24112 12.1875 7.03125 11.9776 7.03125 11.7188V5.15625C7.03125 4.89737 7.24112 4.6875 7.5 4.6875Z" fill="white"/>
<path fill-rule="evenodd" clip-rule="evenodd" d="M5.3739 4.6878C5.63262 4.67856 5.84984 4.88081 5.85908 5.13953L6.09346 11.702C6.1027 11.9607 5.90045 12.178 5.64174 12.1872C5.38302 12.1964 5.16579 11.9942 5.15655 11.7355L4.92218 5.17299C4.91294 4.91427 5.11518 4.69704 5.3739 4.6878Z" fill="white"/>
<path fill-rule="evenodd" clip-rule="evenodd" d="M9.62611 4.6878C9.88483 4.69704 10.0871 4.91427 10.0778 5.17299L9.84346 11.7355C9.83422 11.9942 9.61699 12.1964 9.35828 12.1872C9.09956 12.178 8.89731 11.9607 8.90655 11.702L9.14093 5.13953C9.15017 4.88081 9.36739 4.67856 9.62611 4.6878Z" fill="white"/>
</svg>
